<svg id="mermaid-1604214293233" width="100%" xmlns="http://www.w3.org/2000/svg" height="290" style="max-width: 140px;" viewBox="0 0 140 290"><style>#mermaid-1604214293233{font-family:"trebuchet ms",verdana,arial;font-size:16px;fill:#333;}#mermaid-1604214293233 .error-icon{fill:#552222;}#mermaid-1604214293233 .error-text{fill:#552222;stroke:#552222;}#mermaid-1604214293233 .edge-thickness-normal{stroke-width:2px;}#mermaid-1604214293233 .edge-thickness-thick{stroke-width:3.5px;}#mermaid-1604214293233 .edge-pattern-solid{stroke-dasharray:0;}#mermaid-1604214293233 .edge-pattern-dashed{stroke-dasharray:3;}#mermaid-1604214293233 .edge-pattern-dotted{stroke-dasharray:2;}#mermaid-1604214293233 .marker{fill:#333333;}#mermaid-1604214293233 .marker.cross{stroke:#333333;}#mermaid-1604214293233 svg{font-family:"trebuchet ms",verdana,arial;font-size:16px;}#mermaid-1604214293233 .entityBox{fill:#ECECFF;stroke:#9370DB;}#mermaid-1604214293233 .relationshipLabelBox{fill:hsl(80,100%,96.2745098039%);opacity:0.7;background-color:hsl(80,100%,96.2745098039%);}#mermaid-1604214293233 .relationshipLabelBox rect{opacity:0.5;}#mermaid-1604214293233 .relationshipLine{stroke:#333333;}#mermaid-1604214293233:root{--mermaid-font-family:"trebuchet ms",verdana,arial;}#mermaid-1604214293233 er{fill:apa;}</style><g></g><defs><marker id="ONLY_ONE_START" refX="0" refY="9" markerWidth="18" markerHeight="18" orient="auto"><path stroke="gray" fill="none" d="M9,0 L9,18 M15,0 L15,18"></path></marker></defs><defs><marker id="ONLY_ONE_END" refX="18" refY="9" markerWidth="18" markerHeight="18" orient="auto"><path stroke="gray" fill="none" d="M3,0 L3,18 M9,0 L9,18"></path></marker></defs><defs><marker id="ZERO_OR_ONE_START" refX="0" refY="9" markerWidth="30" markerHeight="18" orient="auto"><circle stroke="gray" fill="white" cx="21" cy="9" r="6"></circle><path stroke="gray" fill="none" d="M9,0 L9,18"></path></marker></defs><defs><marker id="ZERO_OR_ONE_END" refX="30" refY="9" markerWidth="30" markerHeight="18" orient="auto"><circle stroke="gray" fill="white" cx="9" cy="9" r="6"></circle><path stroke="gray" fill="none" d="M21,0 L21,18"></path></marker></defs><defs><marker id="ONE_OR_MORE_START" refX="18" refY="18" markerWidth="45" markerHeight="36" orient="auto"><path stroke="gray" fill="none" d="M0,18 Q 18,0 36,18 Q 18,36 0,18 M42,9 L42,27"></path></marker></defs><defs><marker id="ONE_OR_MORE_END" refX="27" refY="18" markerWidth="45" markerHeight="36" orient="auto"><path stroke="gray" fill="none" d="M3,9 L3,27 M9,18 Q27,0 45,18 Q27,36 9,18"></path></marker></defs><defs><marker id="ZERO_OR_MORE_START" refX="18" refY="18" markerWidth="57" markerHeight="36" orient="auto"><circle stroke="gray" fill="white" cx="48" cy="18" r="6"></circle><path stroke="gray" fill="none" d="M0,18 Q18,0 36,18 Q18,36 0,18"></path></marker></defs><defs><marker id="ZERO_OR_MORE_END" refX="39" refY="18" markerWidth="57" markerHeight="36" orient="auto"><circle stroke="gray" fill="white" cx="9" cy="18" r="6"></circle><path stroke="gray" fill="none" d="M21,18 Q39,0 57,18 Q39,36 21,18"></path></marker></defs><path class="er relationshipLine" d="M70,95L70,103.33333333333333C70,111.66666666666667,70,128.33333333333334,70,145C70,161.66666666666666,70,178.33333333333334,70,186.66666666666666L70,195" stroke="gray" fill="none" marker-end="url(#ONE_OR_MORE_END)" marker-start="url(#ONLY_ONE_START)"></path><g id="Category" transform="translate(20,20 )"><rect class="er entityBox" fill="honeydew" fill-opacity="100%" stroke="gray" x="0" y="0" width="100" height="75"></rect><text class="er entityLabel" id="entity-Category" x="0" y="0" dominant-baseline="middle" text-anchor="middle" style="font-family: &quot;trebuchet ms&quot;, verdana, arial;; font-size: 12px" transform="translate(50,37.5)">Category</text></g><g id="Product" transform="translate(20,195 )"><rect class="er entityBox" fill="honeydew" fill-opacity="100%" stroke="gray" x="0" y="0" width="100" height="75"></rect><text class="er entityLabel" id="entity-Product" x="0" y="0" dominant-baseline="middle" text-anchor="middle" style="font-family: &quot;trebuchet ms&quot;, verdana, arial;; font-size: 12px" transform="translate(50,37.5)">Product</text></g><rect class="er relationshipLabelBox" x="47.5078125" y="137.9921875" width="44.984375" height="14.015625" fill="white" fill-opacity="85%"></rect><text class="er relationshipLabel" id="rel108" x="70" y="145" text-anchor="middle" dominant-baseline="middle" style="font-family: &quot;trebuchet ms&quot;, verdana, arial;; font-size: 12px">contains</text></svg>